<?xml version="1.0" encoding="UTF-8" standalone="no"?><svg xmlns="http://www.w3.org/2000/svg" xmlns:xlink="http://www.w3.org/1999/xlink" clip-rule="evenodd" stroke-miterlimit="10" viewBox="0 0 1920 1080"><desc>SVG generated by Keynote</desc><defs></defs><g transform="matrix(1.00, 0.00, -0.00, -1.00, 0.0, 1080.0)"><path d="M 0.0 1080.0 L 1920.0 1080.0 L 1920.0 0.0 L 0.0 0.0 Z M 0.0 1080.0 " fill="#000000"></path><image xlink:href="../../E5E33463-2FC2-4A71-B29E-60DE9F2A6133/assets/2A12488B191FA9E8F5B0A56EAD9267A6.png" width="967.00" height="92.00" transform="matrix(1.00, 0.00, -0.00, -1.00, 479.0, 643.0)"></image><text xml:space="preserve" font-family="Gotham-Light,Gotham" font-size="112.0" fill="#FEFFFF" transform="matrix(1.00, 0.00, -0.00, -1.00, 472.6, 560.8)">P</text><text xml:space="preserve" font-family="Gotham-Light,Gotham" font-size="112.0" fill="#FEFFFF" transform="matrix(1.00, 0.00, -0.00, -1.00, 546.8, 560.8)">o</text><text xml:space="preserve" font-family="Gotham-Light,Gotham" font-size="112.0" fill="#FEFFFF" transform="matrix(1.00, 0.00, -0.00, -1.00, 618.5, 560.8)">s</text><text xml:space="preserve" font-family="Gotham-Light,Gotham" font-size="112.0" fill="#FEFFFF" transform="matrix(1.00, 0.00, -0.00, -1.00, 673.1, 560.8)">t</text><text xml:space="preserve" font-family="Gotham-Light,Gotham" font-size="112.0" fill="#FEFFFF" transform="matrix(1.00, 0.00, -0.00, -1.00, 717.9, 560.8)">-</text><text xml:space="preserve" font-family="Gotham-Light,Gotham" font-size="112.0" fill="#FEFFFF" transform="matrix(1.00, 0.00, -0.00, -1.00, 763.6, 560.8)">N</text><text xml:space="preserve" font-family="Gotham-Light,Gotham" font-size="112.0" fill="#FEFFFF" transform="matrix(1.00, 0.00, -0.00, -1.00, 852.0, 560.8)">O</text><text xml:space="preserve" font-family="Gotham-Light,Gotham" font-size="112.0" fill="#FEFFFF" transform="matrix(1.00, 0.00, -0.00, -1.00, 947.2, 560.8)">D</text><text xml:space="preserve" font-family="Gotham-Light,Gotham" font-size="112.0" fill="#FEFFFF" transform="matrix(1.00, 0.00, -0.00, -1.00, 1034.8, 560.8)">E</text><text xml:space="preserve" font-family="Gotham-Light,Gotham" font-size="112.0" fill="#FEFFFF" transform="matrix(1.00, 0.00, -0.00, -1.00, 1109.9, 560.8)">C</text><text xml:space="preserve" font-family="Gotham-Light,Gotham" font-size="112.0" fill="#FEFFFF" transform="matrix(1.00, 0.00, -0.00, -1.00, 1190.3, 560.8)">O</text><text xml:space="preserve" font-family="Gotham-Light,Gotham" font-size="112.0" fill="#FEFFFF" transform="matrix(1.00, 0.00, -0.00, -1.00, 1285.5, 560.8)">N</text><text xml:space="preserve" font-family="Gotham-Light,Gotham" font-size="112.0" fill="#FEFFFF" transform="matrix(1.00, 0.00, -0.00, -1.00, 1374.0, 560.8)">F</text><image xlink:href="../../E5E33463-2FC2-4A71-B29E-60DE9F2A6133/assets/DA5C2A9A38AA2F8C9CE26CF75A2E9EFF.png" width="915.00" height="51.00" transform="matrix(1.00, 0.00, -0.00, -1.00, 512.0, 517.0)"></image><text xml:space="preserve" font-family="Gotham-Light,Gotham" font-size="44.0" fill="#FEFFFF" transform="matrix(1.00, 0.00, -0.00, -1.00, 513.0, 482.1)">M</text><text xml:space="preserve" font-family="Gotham-Light,Gotham" font-size="44.0" fill="#FEFFFF" transform="matrix(1.00, 0.00, -0.00, -1.00, 551.2, 482.1)">u</text><text xml:space="preserve" font-family="Gotham-Light,Gotham" font-size="44.0" fill="#FEFFFF" transform="matrix(1.00, 0.00, -0.00, -1.00, 578.2, 482.1)">c</text><text xml:space="preserve" font-family="Gotham-Light,Gotham" font-size="44.0" fill="#FEFFFF" transform="matrix(1.00, 0.00, -0.00, -1.00, 603.3, 482.1)">h</text><text xml:space="preserve" font-family="Gotham-Light,Gotham" font-size="44.0" fill="#FEFFFF" transform="matrix(1.00, 0.00, -0.00, -1.00, 630.3, 482.1)"> </text><text xml:space="preserve" font-family="Gotham-Light,Gotham" font-size="44.0" fill="#FEFFFF" transform="matrix(1.00, 0.00, -0.00, -1.00, 643.5, 482.1)">i</text><text xml:space="preserve" font-family="Gotham-Light,Gotham" font-size="44.0" fill="#FEFFFF" transform="matrix(1.00, 0.00, -0.00, -1.00, 654.4, 482.1)">n</text><text xml:space="preserve" font-family="Gotham-Light,Gotham" font-size="44.0" fill="#FEFFFF" transform="matrix(1.00, 0.00, -0.00, -1.00, 681.4, 482.1)">t</text><text xml:space="preserve" font-family="Gotham-Light,Gotham" font-size="44.0" fill="#FEFFFF" transform="matrix(1.00, 0.00, -0.00, -1.00, 698.4, 482.1)">e</text><text xml:space="preserve" font-family="Gotham-Light,Gotham" font-size="44.0" fill="#FEFFFF" transform="matrix(1.00, 0.00, -0.00, -1.00, 724.1, 482.1)">r</text><text xml:space="preserve" font-family="Gotham-Light,Gotham" font-size="44.0" fill="#FEFFFF" transform="matrix(1.00, 0.00, -0.00, -1.00, 740.6, 482.1)">e</text><text xml:space="preserve" font-family="Gotham-Light,Gotham" font-size="44.0" fill="#FEFFFF" transform="matrix(1.00, 0.00, -0.00, -1.00, 766.2, 482.1)">s</text><text xml:space="preserve" font-family="Gotham-Light,Gotham" font-size="44.0" fill="#FEFFFF" transform="matrix(1.00, 0.00, -0.00, -1.00, 787.7, 482.1)">t</text><text xml:space="preserve" font-family="Gotham-Light,Gotham" font-size="44.0" fill="#FEFFFF" transform="matrix(1.00, 0.00, -0.00, -1.00, 805.3, 482.1)">,</text><text xml:space="preserve" font-family="Gotham-Light,Gotham" font-size="44.0" fill="#FEFFFF" transform="matrix(1.00, 0.00, -0.00, -1.00, 815.4, 482.1)"> </text><text xml:space="preserve" font-family="Gotham-Light,Gotham" font-size="44.0" fill="#FEFFFF" transform="matrix(1.00, 0.00, -0.00, -1.00, 828.6, 482.1)">v</text><text xml:space="preserve" font-family="Gotham-Light,Gotham" font-size="44.0" fill="#FEFFFF" transform="matrix(1.00, 0.00, -0.00, -1.00, 852.9, 482.1)">e</text><text xml:space="preserve" font-family="Gotham-Light,Gotham" font-size="44.0" fill="#FEFFFF" transform="matrix(1.00, 0.00, -0.00, -1.00, 878.6, 482.1)">r</text><text xml:space="preserve" font-family="Gotham-Light,Gotham" font-size="44.0" fill="#FEFFFF" transform="matrix(1.00, 0.00, -0.00, -1.00, 896.2, 482.1)">y</text><text xml:space="preserve" font-family="Gotham-Light,Gotham" font-size="44.0" fill="#FEFFFF" transform="matrix(1.00, 0.00, -0.00, -1.00, 922.1, 482.1)"> </text><text xml:space="preserve" font-family="Gotham-Light,Gotham" font-size="44.0" fill="#FEFFFF" transform="matrix(1.00, 0.00, -0.00, -1.00, 935.3, 482.1)">e</text><text xml:space="preserve" font-family="Gotham-Light,Gotham" font-size="44.0" fill="#FEFFFF" transform="matrix(1.00, 0.00, -0.00, -1.00, 959.6, 482.1)">x</text><text xml:space="preserve" font-family="Gotham-Light,Gotham" font-size="44.0" fill="#FEFFFF" transform="matrix(1.00, 0.00, -0.00, -1.00, 983.2, 482.1)">c</text><text xml:space="preserve" font-family="Gotham-Light,Gotham" font-size="44.0" fill="#FEFFFF" transform="matrix(1.00, 0.00, -0.00, -1.00, 1008.3, 482.1)">i</text><text xml:space="preserve" font-family="Gotham-Light,Gotham" font-size="44.0" fill="#FEFFFF" transform="matrix(1.00, 0.00, -0.00, -1.00, 1019.2, 482.1)">t</text><text xml:space="preserve" font-family="Gotham-Light,Gotham" font-size="44.0" fill="#FEFFFF" transform="matrix(1.00, 0.00, -0.00, -1.00, 1036.2, 482.1)">e</text><text xml:space="preserve" font-family="Gotham-Light,Gotham" font-size="44.0" fill="#FEFFFF" transform="matrix(1.00, 0.00, -0.00, -1.00, 1061.4, 482.1)">,</text><text xml:space="preserve" font-family="Gotham-Light,Gotham" font-size="44.0" fill="#FEFFFF" transform="matrix(1.00, 0.00, -0.00, -1.00, 1071.6, 482.1)"> </text><text xml:space="preserve" font-family="Gotham-Light,Gotham" font-size="44.0" fill="#FEFFFF" transform="matrix(1.00, 0.00, -0.00, -1.00, 1084.8, 482.1)">m</text><text xml:space="preserve" font-family="Gotham-Light,Gotham" font-size="44.0" fill="#FEFFFF" transform="matrix(1.00, 0.00, -0.00, -1.00, 1126.6, 482.1)">a</text><text xml:space="preserve" font-family="Gotham-Light,Gotham" font-size="44.0" fill="#FEFFFF" transform="matrix(1.00, 0.00, -0.00, -1.00, 1151.9, 482.1)">n</text><text xml:space="preserve" font-family="Gotham-Light,Gotham" font-size="44.0" fill="#FEFFFF" transform="matrix(1.00, 0.00, -0.00, -1.00, 1178.2, 482.1)">y</text><text xml:space="preserve" font-family="Gotham-Light,Gotham" font-size="44.0" fill="#FEFFFF" transform="matrix(1.00, 0.00, -0.00, -1.00, 1204.0, 482.1)"> </text><text xml:space="preserve" font-family="Gotham-Light,Gotham" font-size="44.0" fill="#FEFFFF" transform="matrix(1.00, 0.00, -0.00, -1.00, 1217.2, 482.1)">m</text><text xml:space="preserve" font-family="Gotham-Light,Gotham" font-size="44.0" fill="#FEFFFF" transform="matrix(1.00, 0.00, -0.00, -1.00, 1259.1, 482.1)">e</text><text xml:space="preserve" font-family="Gotham-Light,Gotham" font-size="44.0" fill="#FEFFFF" transform="matrix(1.00, 0.00, -0.00, -1.00, 1284.8, 482.1)">e</text><text xml:space="preserve" font-family="Gotham-Light,Gotham" font-size="44.0" fill="#FEFFFF" transform="matrix(1.00, 0.00, -0.00, -1.00, 1310.5, 482.1)">t</text><text xml:space="preserve" font-family="Gotham-Light,Gotham" font-size="44.0" fill="#FEFFFF" transform="matrix(1.00, 0.00, -0.00, -1.00, 1328.1, 482.1)">i</text><text xml:space="preserve" font-family="Gotham-Light,Gotham" font-size="44.0" fill="#FEFFFF" transform="matrix(1.00, 0.00, -0.00, -1.00, 1339.0, 482.1)">n</text><text xml:space="preserve" font-family="Gotham-Light,Gotham" font-size="44.0" fill="#FEFFFF" transform="matrix(1.00, 0.00, -0.00, -1.00, 1366.0, 482.1)">g</text><text xml:space="preserve" font-family="Gotham-Light,Gotham" font-size="44.0" fill="#FEFFFF" transform="matrix(1.00, 0.00, -0.00, -1.00, 1395.1, 482.1)">…</text></g></svg>