<?xml version="1.0" encoding="UTF-8" standalone="no"?><svg xmlns="http://www.w3.org/2000/svg" xmlns:xlink="http://www.w3.org/1999/xlink" clip-rule="evenodd" stroke-miterlimit="10" viewBox="0 0 1920 1080"><desc>SVG generated by Keynote</desc><defs></defs><g transform="matrix(1.00, 0.00, -0.00, -1.00, 0.0, 1080.0)"><path d="M 0.0 1080.0 L 1920.0 1080.0 L 1920.0 0.0 L 0.0 0.0 Z M 0.0 1080.0 " fill="#000000"></path><image xlink:href="../../63FDE3F6-E1E4-4BEC-8BAE-FAEF5D63F8B5/assets/76BA4431F6EDE2992E0D594F404CD546.png" width="800.00" height="109.00" transform="matrix(1.00, 0.00, -0.00, -1.00, 562.0, 643.0)"></image><text xml:space="preserve" font-family="Gotham-Light,Gotham" font-size="112.0" fill="#FEFFFF" transform="matrix(1.00, 0.00, -0.00, -1.00, 556.1, 560.8)">R</text><text xml:space="preserve" font-family="Gotham-Light,Gotham" font-size="112.0" fill="#FEFFFF" transform="matrix(1.00, 0.00, -0.00, -1.00, 637.1, 560.8)">a</text><text xml:space="preserve" font-family="Gotham-Light,Gotham" font-size="112.0" fill="#FEFFFF" transform="matrix(1.00, 0.00, -0.00, -1.00, 699.2, 560.8)">v</text><text xml:space="preserve" font-family="Gotham-Light,Gotham" font-size="112.0" fill="#FEFFFF" transform="matrix(1.00, 0.00, -0.00, -1.00, 761.0, 560.8)">e</text><text xml:space="preserve" font-family="Gotham-Light,Gotham" font-size="112.0" fill="#FEFFFF" transform="matrix(1.00, 0.00, -0.00, -1.00, 825.3, 560.8)">.</text><text xml:space="preserve" font-family="Gotham-Light,Gotham" font-size="112.0" fill="#FEFFFF" transform="matrix(1.00, 0.00, -0.00, -1.00, 852.7, 560.8)">j</text><text xml:space="preserve" font-family="Gotham-Light,Gotham" font-size="112.0" fill="#FEFFFF" transform="matrix(1.00, 0.00, -0.00, -1.00, 880.6, 560.8)">s</text><text xml:space="preserve" font-family="Gotham-Light,Gotham" font-size="112.0" fill="#FEFFFF" transform="matrix(1.00, 0.00, -0.00, -1.00, 936.3, 560.8)"> </text><text xml:space="preserve" font-family="Gotham-Light,Gotham" font-size="112.0" fill="#FEFFFF" transform="matrix(1.00, 0.00, -0.00, -1.00, 969.9, 560.8)">O</text><text xml:space="preserve" font-family="Gotham-Light,Gotham" font-size="112.0" fill="#FEFFFF" transform="matrix(1.00, 0.00, -0.00, -1.00, 1065.1, 560.8)">r</text><text xml:space="preserve" font-family="Gotham-Light,Gotham" font-size="112.0" fill="#FEFFFF" transform="matrix(1.00, 0.00, -0.00, -1.00, 1109.9, 560.8)">i</text><text xml:space="preserve" font-family="Gotham-Light,Gotham" font-size="112.0" fill="#FEFFFF" transform="matrix(1.00, 0.00, -0.00, -1.00, 1137.7, 560.8)">g</text><text xml:space="preserve" font-family="Gotham-Light,Gotham" font-size="112.0" fill="#FEFFFF" transform="matrix(1.00, 0.00, -0.00, -1.00, 1211.7, 560.8)">i</text><text xml:space="preserve" font-family="Gotham-Light,Gotham" font-size="112.0" fill="#FEFFFF" transform="matrix(1.00, 0.00, -0.00, -1.00, 1239.6, 560.8)">n</text><text xml:space="preserve" font-family="Gotham-Light,Gotham" font-size="112.0" fill="#FEFFFF" transform="matrix(1.00, 0.00, -0.00, -1.00, 1308.2, 560.8)">s</text><image xlink:href="../../63FDE3F6-E1E4-4BEC-8BAE-FAEF5D63F8B5/assets/64EDF5B26DDCD8276B9A4E69DADE3FA1.png" width="846.00" height="51.00" transform="matrix(1.00, 0.00, -0.00, -1.00, 536.0, 517.0)"></image><text xml:space="preserve" font-family="Gotham-Light,Gotham" font-size="44.0" fill="#FEFFFF" transform="matrix(1.00, 0.00, -0.00, -1.00, 540.0, 482.1)">A</text><text xml:space="preserve" font-family="Gotham-Light,Gotham" font-size="44.0" fill="#FEFFFF" transform="matrix(1.00, 0.00, -0.00, -1.00, 574.7, 482.1)"> </text><text xml:space="preserve" font-family="Gotham-Light,Gotham" font-size="44.0" fill="#FEFFFF" transform="matrix(1.00, 0.00, -0.00, -1.00, 587.9, 482.1)">S</text><text xml:space="preserve" font-family="Gotham-Light,Gotham" font-size="44.0" fill="#FEFFFF" transform="matrix(1.00, 0.00, -0.00, -1.00, 615.9, 482.1)">t</text><text xml:space="preserve" font-family="Gotham-Light,Gotham" font-size="44.0" fill="#FEFFFF" transform="matrix(1.00, 0.00, -0.00, -1.00, 632.8, 482.1)">o</text><text xml:space="preserve" font-family="Gotham-Light,Gotham" font-size="44.0" fill="#FEFFFF" transform="matrix(1.00, 0.00, -0.00, -1.00, 661.0, 482.1)">r</text><text xml:space="preserve" font-family="Gotham-Light,Gotham" font-size="44.0" fill="#FEFFFF" transform="matrix(1.00, 0.00, -0.00, -1.00, 678.6, 482.1)">y</text><text xml:space="preserve" font-family="Gotham-Light,Gotham" font-size="44.0" fill="#FEFFFF" transform="matrix(1.00, 0.00, -0.00, -1.00, 704.4, 482.1)"> </text><text xml:space="preserve" font-family="Gotham-Light,Gotham" font-size="44.0" fill="#FEFFFF" transform="matrix(1.00, 0.00, -0.00, -1.00, 717.6, 482.1)">o</text><text xml:space="preserve" font-family="Gotham-Light,Gotham" font-size="44.0" fill="#FEFFFF" transform="matrix(1.00, 0.00, -0.00, -1.00, 745.8, 482.1)">f</text><text xml:space="preserve" font-family="Gotham-Light,Gotham" font-size="44.0" fill="#FEFFFF" transform="matrix(1.00, 0.00, -0.00, -1.00, 761.7, 482.1)"> </text><text xml:space="preserve" font-family="Gotham-Light,Gotham" font-size="44.0" fill="#FEFFFF" transform="matrix(1.00, 0.00, -0.00, -1.00, 774.9, 482.1)">O</text><text xml:space="preserve" font-family="Gotham-Light,Gotham" font-size="44.0" fill="#FEFFFF" transform="matrix(1.00, 0.00, -0.00, -1.00, 812.3, 482.1)">r</text><text xml:space="preserve" font-family="Gotham-Light,Gotham" font-size="44.0" fill="#FEFFFF" transform="matrix(1.00, 0.00, -0.00, -1.00, 828.8, 482.1)">g</text><text xml:space="preserve" font-family="Gotham-Light,Gotham" font-size="44.0" fill="#FEFFFF" transform="matrix(1.00, 0.00, -0.00, -1.00, 857.9, 482.1)">a</text><text xml:space="preserve" font-family="Gotham-Light,Gotham" font-size="44.0" fill="#FEFFFF" transform="matrix(1.00, 0.00, -0.00, -1.00, 883.1, 482.1)">n</text><text xml:space="preserve" font-family="Gotham-Light,Gotham" font-size="44.0" fill="#FEFFFF" transform="matrix(1.00, 0.00, -0.00, -1.00, 910.1, 482.1)">i</text><text xml:space="preserve" font-family="Gotham-Light,Gotham" font-size="44.0" fill="#FEFFFF" transform="matrix(1.00, 0.00, -0.00, -1.00, 921.1, 482.1)">c</text><text xml:space="preserve" font-family="Gotham-Light,Gotham" font-size="44.0" fill="#FEFFFF" transform="matrix(1.00, 0.00, -0.00, -1.00, 946.2, 482.1)"> </text><text xml:space="preserve" font-family="Gotham-Light,Gotham" font-size="44.0" fill="#FEFFFF" transform="matrix(1.00, 0.00, -0.00, -1.00, 959.4, 482.1)">G</text><text xml:space="preserve" font-family="Gotham-Light,Gotham" font-size="44.0" fill="#FEFFFF" transform="matrix(1.00, 0.00, -0.00, -1.00, 993.9, 482.1)">r</text><text xml:space="preserve" font-family="Gotham-Light,Gotham" font-size="44.0" fill="#FEFFFF" transform="matrix(1.00, 0.00, -0.00, -1.00, 1010.4, 482.1)">o</text><text xml:space="preserve" font-family="Gotham-Light,Gotham" font-size="44.0" fill="#FEFFFF" transform="matrix(1.00, 0.00, -0.00, -1.00, 1037.4, 482.1)">w</text><text xml:space="preserve" font-family="Gotham-Light,Gotham" font-size="44.0" fill="#FEFFFF" transform="matrix(1.00, 0.00, -0.00, -1.00, 1075.3, 482.1)">t</text><text xml:space="preserve" font-family="Gotham-Light,Gotham" font-size="44.0" fill="#FEFFFF" transform="matrix(1.00, 0.00, -0.00, -1.00, 1092.9, 482.1)">h</text><text xml:space="preserve" font-family="Gotham-Light,Gotham" font-size="44.0" fill="#FEFFFF" transform="matrix(1.00, 0.00, -0.00, -1.00, 1119.9, 482.1)"> </text><text xml:space="preserve" font-family="Gotham-Light,Gotham" font-size="44.0" fill="#FEFFFF" transform="matrix(1.00, 0.00, -0.00, -1.00, 1133.1, 482.1)">&amp;</text><text xml:space="preserve" font-family="Gotham-Light,Gotham" font-size="44.0" fill="#FEFFFF" transform="matrix(1.00, 0.00, -0.00, -1.00, 1163.7, 482.1)"> </text><text xml:space="preserve" font-family="Gotham-Light,Gotham" font-size="44.0" fill="#FEFFFF" transform="matrix(1.00, 0.00, -0.00, -1.00, 1176.9, 482.1)">E</text><text xml:space="preserve" font-family="Gotham-Light,Gotham" font-size="44.0" fill="#FEFFFF" transform="matrix(1.00, 0.00, -0.00, -1.00, 1206.0, 482.1)">v</text><text xml:space="preserve" font-family="Gotham-Light,Gotham" font-size="44.0" fill="#FEFFFF" transform="matrix(1.00, 0.00, -0.00, -1.00, 1230.2, 482.1)">o</text><text xml:space="preserve" font-family="Gotham-Light,Gotham" font-size="44.0" fill="#FEFFFF" transform="matrix(1.00, 0.00, -0.00, -1.00, 1258.4, 482.1)">l</text><text xml:space="preserve" font-family="Gotham-Light,Gotham" font-size="44.0" fill="#FEFFFF" transform="matrix(1.00, 0.00, -0.00, -1.00, 1269.4, 482.1)">u</text><text xml:space="preserve" font-family="Gotham-Light,Gotham" font-size="44.0" fill="#FEFFFF" transform="matrix(1.00, 0.00, -0.00, -1.00, 1296.3, 482.1)">t</text><text xml:space="preserve" font-family="Gotham-Light,Gotham" font-size="44.0" fill="#FEFFFF" transform="matrix(1.00, 0.00, -0.00, -1.00, 1313.9, 482.1)">i</text><text xml:space="preserve" font-family="Gotham-Light,Gotham" font-size="44.0" fill="#FEFFFF" transform="matrix(1.00, 0.00, -0.00, -1.00, 1324.9, 482.1)">o</text><text xml:space="preserve" font-family="Gotham-Light,Gotham" font-size="44.0" fill="#FEFFFF" transform="matrix(1.00, 0.00, -0.00, -1.00, 1353.1, 482.1)">n</text><image xlink:href="../../63FDE3F6-E1E4-4BEC-8BAE-FAEF5D63F8B5/assets/1739B57953846E7C4B31E96836A1CE54.png" width="424.00" height="170.00" transform="matrix(1.00, 0.00, -0.00, -1.00, 419.0, 670.0)"></image><text xml:space="preserve" font-family="Gotham-Ultra,Gotham" font-weight="bold" font-size="134.0" fill="#D35854" transform="matrix(0.97, 0.24, 0.24, -0.97, 439.4, 503.4)">D</text><text xml:space="preserve" font-family="Gotham-Ultra,Gotham" font-weight="bold" font-size="134.0" fill="#D35854" transform="matrix(0.97, 0.24, 0.24, -0.97, 535.5, 527.4)">a</text><text xml:space="preserve" font-family="Gotham-Ultra,Gotham" font-weight="bold" font-size="134.0" fill="#D35854" transform="matrix(0.97, 0.24, 0.24, -0.97, 614.2, 547.0)">n</text><text xml:space="preserve" font-family="Gotham-Ultra,Gotham" font-weight="bold" font-size="134.0" fill="#D35854" transform="matrix(0.97, 0.24, 0.24, -0.97, 698.1, 567.9)">c</text><text xml:space="preserve" font-family="Gotham-Ultra,Gotham" font-weight="bold" font-size="134.0" fill="#D35854" transform="matrix(0.97, 0.24, 0.24, -0.97, 769.9, 585.8)">e</text></g></svg>