<?xml version="1.0" encoding="UTF-8" standalone="no"?><svg xmlns="http://www.w3.org/2000/svg" xmlns:xlink="http://www.w3.org/1999/xlink" clip-rule="evenodd" stroke-miterlimit="10" viewBox="0 0 1920 1080"><desc>SVG generated by Keynote</desc><defs></defs><g transform="matrix(1.00, 0.00, -0.00, -1.00, 0.0, 1080.0)"><path d="M 0.0 1080.0 L 1920.0 1080.0 L 1920.0 0.0 L 0.0 0.0 Z M 0.0 1080.0 " fill="#000000"></path><image xlink:href="../../A322BF79-F825-4919-B6D4-B1AA3989B711/assets/49A80F03CE2F74D78097F91EEF72D127.jpeg" width="2048.00" height="1365.00" transform="matrix(0.95, 0.00, -0.00, -0.95, -11.0, 1129.0)"></image><image xlink:href="../../A322BF79-F825-4919-B6D4-B1AA3989B711/assets/454C15B66DB984B7E46652981609E60B.png" width="917.00" height="111.00" transform="matrix(1.00, 0.00, -0.00, -1.00, 500.0, 645.0)"></image><text xml:space="preserve" font-family="Gotham-Light,Gotham" font-size="112.0" fill="#FEFFFF" transform="matrix(1.00, 0.00, -0.00, -1.00, 499.2, 560.8)">T</text><text xml:space="preserve" font-family="Gotham-Light,Gotham" font-size="112.0" fill="#FEFFFF" transform="matrix(1.00, 0.00, -0.00, -1.00, 569.5, 560.8)">h</text><text xml:space="preserve" font-family="Gotham-Light,Gotham" font-size="112.0" fill="#FEFFFF" transform="matrix(1.00, 0.00, -0.00, -1.00, 638.2, 560.8)">e</text><text xml:space="preserve" font-family="Gotham-Light,Gotham" font-size="112.0" fill="#FEFFFF" transform="matrix(1.00, 0.00, -0.00, -1.00, 703.6, 560.8)"> </text><text xml:space="preserve" font-family="Gotham-Light,Gotham" font-size="112.0" fill="#FEFFFF" transform="matrix(1.00, 0.00, -0.00, -1.00, 737.2, 560.8)">B</text><text xml:space="preserve" font-family="Gotham-Light,Gotham" font-size="112.0" fill="#FEFFFF" transform="matrix(1.00, 0.00, -0.00, -1.00, 818.0, 560.8)">o</text><text xml:space="preserve" font-family="Gotham-Light,Gotham" font-size="112.0" fill="#FEFFFF" transform="matrix(1.00, 0.00, -0.00, -1.00, 889.7, 560.8)">o</text><text xml:space="preserve" font-family="Gotham-Light,Gotham" font-size="112.0" fill="#FEFFFF" transform="matrix(1.00, 0.00, -0.00, -1.00, 961.4, 560.8)">g</text><text xml:space="preserve" font-family="Gotham-Light,Gotham" font-size="112.0" fill="#FEFFFF" transform="matrix(1.00, 0.00, -0.00, -1.00, 1035.3, 560.8)">i</text><text xml:space="preserve" font-family="Gotham-Light,Gotham" font-size="112.0" fill="#FEFFFF" transform="matrix(1.00, 0.00, -0.00, -1.00, 1063.2, 560.8)">e</text><text xml:space="preserve" font-family="Gotham-Light,Gotham" font-size="112.0" fill="#FEFFFF" transform="matrix(1.00, 0.00, -0.00, -1.00, 1128.6, 560.8)"> </text><text xml:space="preserve" font-family="Gotham-Light,Gotham" font-size="112.0" fill="#FEFFFF" transform="matrix(1.00, 0.00, -0.00, -1.00, 1162.2, 560.8)">B</text><text xml:space="preserve" font-family="Gotham-Light,Gotham" font-size="112.0" fill="#FEFFFF" transform="matrix(1.00, 0.00, -0.00, -1.00, 1243.1, 560.8)">a</text><text xml:space="preserve" font-family="Gotham-Light,Gotham" font-size="112.0" fill="#FEFFFF" transform="matrix(1.00, 0.00, -0.00, -1.00, 1307.4, 560.8)">r</text><text xml:space="preserve" font-family="Gotham-Light,Gotham" font-size="112.0" fill="#FEFFFF" transform="matrix(1.00, 0.00, -0.00, -1.00, 1352.2, 560.8)">n</text><image xlink:href="../../A322BF79-F825-4919-B6D4-B1AA3989B711/assets/ED7092A36ADC4D1BB259859DE7F43660.png" width="679.00" height="50.00" transform="matrix(1.00, 0.00, -0.00, -1.00, 620.0, 517.0)"></image><text xml:space="preserve" font-family="Gotham-Light,Gotham" font-size="44.0" fill="#FEFFFF" transform="matrix(1.00, 0.00, -0.00, -1.00, 624.0, 482.1)">1</text><text xml:space="preserve" font-family="Gotham-Light,Gotham" font-size="44.0" fill="#FEFFFF" transform="matrix(1.00, 0.00, -0.00, -1.00, 638.7, 482.1)">9</text><text xml:space="preserve" font-family="Gotham-Light,Gotham" font-size="44.0" fill="#FEFFFF" transform="matrix(1.00, 0.00, -0.00, -1.00, 666.9, 482.1)">0</text><text xml:space="preserve" font-family="Gotham-Light,Gotham" font-size="44.0" fill="#FEFFFF" transform="matrix(1.00, 0.00, -0.00, -1.00, 698.2, 482.1)">6</text><text xml:space="preserve" font-family="Gotham-Light,Gotham" font-size="44.0" fill="#FEFFFF" transform="matrix(1.00, 0.00, -0.00, -1.00, 726.4, 482.1)"> </text><text xml:space="preserve" font-family="Gotham-Light,Gotham" font-size="44.0" fill="#FEFFFF" transform="matrix(1.00, 0.00, -0.00, -1.00, 739.6, 482.1)">c</text><text xml:space="preserve" font-family="Gotham-Light,Gotham" font-size="44.0" fill="#FEFFFF" transform="matrix(1.00, 0.00, -0.00, -1.00, 764.8, 482.1)">r</text><text xml:space="preserve" font-family="Gotham-Light,Gotham" font-size="44.0" fill="#FEFFFF" transform="matrix(1.00, 0.00, -0.00, -1.00, 781.2, 482.1)">a</text><text xml:space="preserve" font-family="Gotham-Light,Gotham" font-size="44.0" fill="#FEFFFF" transform="matrix(1.00, 0.00, -0.00, -1.00, 806.5, 482.1)">f</text><text xml:space="preserve" font-family="Gotham-Light,Gotham" font-size="44.0" fill="#FEFFFF" transform="matrix(1.00, 0.00, -0.00, -1.00, 822.4, 482.1)">t</text><text xml:space="preserve" font-family="Gotham-Light,Gotham" font-size="44.0" fill="#FEFFFF" transform="matrix(1.00, 0.00, -0.00, -1.00, 840.0, 482.1)">s</text><text xml:space="preserve" font-family="Gotham-Light,Gotham" font-size="44.0" fill="#FEFFFF" transform="matrix(1.00, 0.00, -0.00, -1.00, 861.9, 482.1)">m</text><text xml:space="preserve" font-family="Gotham-Light,Gotham" font-size="44.0" fill="#FEFFFF" transform="matrix(1.00, 0.00, -0.00, -1.00, 903.7, 482.1)">a</text><text xml:space="preserve" font-family="Gotham-Light,Gotham" font-size="44.0" fill="#FEFFFF" transform="matrix(1.00, 0.00, -0.00, -1.00, 929.0, 482.1)">n</text><text xml:space="preserve" font-family="Gotham-Light,Gotham" font-size="44.0" fill="#FEFFFF" transform="matrix(1.00, 0.00, -0.00, -1.00, 956.0, 482.1)">s</text><text xml:space="preserve" font-family="Gotham-Light,Gotham" font-size="44.0" fill="#FEFFFF" transform="matrix(1.00, 0.00, -0.00, -1.00, 977.8, 482.1)">h</text><text xml:space="preserve" font-family="Gotham-Light,Gotham" font-size="44.0" fill="#FEFFFF" transform="matrix(1.00, 0.00, -0.00, -1.00, 1004.8, 482.1)">i</text><text xml:space="preserve" font-family="Gotham-Light,Gotham" font-size="44.0" fill="#FEFFFF" transform="matrix(1.00, 0.00, -0.00, -1.00, 1015.8, 482.1)">p</text><text xml:space="preserve" font-family="Gotham-Light,Gotham" font-size="44.0" fill="#FEFFFF" transform="matrix(1.00, 0.00, -0.00, -1.00, 1044.8, 482.1)"> </text><text xml:space="preserve" font-family="Gotham-Light,Gotham" font-size="44.0" fill="#FEFFFF" transform="matrix(1.00, 0.00, -0.00, -1.00, 1058.0, 482.1)">a</text><text xml:space="preserve" font-family="Gotham-Light,Gotham" font-size="44.0" fill="#FEFFFF" transform="matrix(1.00, 0.00, -0.00, -1.00, 1083.0, 482.1)">t</text><text xml:space="preserve" font-family="Gotham-Light,Gotham" font-size="44.0" fill="#FEFFFF" transform="matrix(1.00, 0.00, -0.00, -1.00, 1100.6, 482.1)"> </text><text xml:space="preserve" font-family="Gotham-Light,Gotham" font-size="44.0" fill="#FEFFFF" transform="matrix(1.00, 0.00, -0.00, -1.00, 1113.8, 482.1)">i</text><text xml:space="preserve" font-family="Gotham-Light,Gotham" font-size="44.0" fill="#FEFFFF" transform="matrix(1.00, 0.00, -0.00, -1.00, 1124.8, 482.1)">t</text><text xml:space="preserve" font-family="Gotham-Light,Gotham" font-size="44.0" fill="#FEFFFF" transform="matrix(1.00, 0.00, -0.00, -1.00, 1142.4, 482.1)">s</text><text xml:space="preserve" font-family="Gotham-Light,Gotham" font-size="44.0" fill="#FEFFFF" transform="matrix(1.00, 0.00, -0.00, -1.00, 1164.3, 482.1)"> </text><text xml:space="preserve" font-family="Gotham-Light,Gotham" font-size="44.0" fill="#FEFFFF" transform="matrix(1.00, 0.00, -0.00, -1.00, 1177.5, 482.1)">ï¬</text><text xml:space="preserve" font-family="Gotham-Light,Gotham" font-size="44.0" fill="#FEFFFF" transform="matrix(1.00, 0.00, -0.00, -1.00, 1204.4, 482.1)">n</text><text xml:space="preserve" font-family="Gotham-Light,Gotham" font-size="44.0" fill="#FEFFFF" transform="matrix(1.00, 0.00, -0.00, -1.00, 1231.3, 482.1)">e</text><text xml:space="preserve" font-family="Gotham-Light,Gotham" font-size="44.0" fill="#FEFFFF" transform="matrix(1.00, 0.00, -0.00, -1.00, 1257.0, 482.1)">s</text><text xml:space="preserve" font-family="Gotham-Light,Gotham" font-size="44.0" fill="#FEFFFF" transform="matrix(1.00, 0.00, -0.00, -1.00, 1278.5, 482.1)">t</text></g></svg>