<?xml version="1.0" encoding="UTF-8" standalone="no"?><svg xmlns="http://www.w3.org/2000/svg" xmlns:xlink="http://www.w3.org/1999/xlink" clip-rule="evenodd" stroke-miterlimit="10" viewBox="0 0 1920 1080"><desc>SVG generated by Keynote</desc><defs></defs><g transform="matrix(1.00, 0.00, -0.00, -1.00, 0.0, 1080.0)"><path d="M 0.0 1080.0 L 1920.0 1080.0 L 1920.0 0.0 L 0.0 0.0 Z M 0.0 1080.0 " fill="#000000"></path><g><clipPath id="clip0x6180006b3980"><path d="M 916.0 917.0 L 1639.0 917.0 L 1639.0 194.0 L 916.0 194.0 Z M 916.2 917.1 "></path></clipPath><g clip-path="url(#clip0x6180006b3980)"><image xlink:href="../../3F575632-A538-4A07-8533-C8E27A489163/assets/C353BABF705BAF27102810288F3FCD83.jpeg" width="640.00" height="640.00" transform="matrix(1.13, 0.00, -0.00, -1.13, 916.0, 917.0)"></image></g></g><g><clipPath id="clip0x6180008b2180"><path d="M 330.1 573.3 L 951.5 573.3 L 951.5 1004.1 L 330.1 1004.1 Z M 330.1 573.3 "></path></clipPath><g clip-path="url(#clip0x6180008b2180)"><text xml:space="preserve" font-family="Gotham-Light,Gotham" font-size="84.0" fill="#FEFFFF" transform="matrix(1.00, 0.00, -0.00, -1.00, 412.3, 589.7)">E</text><text xml:space="preserve" font-family="Gotham-Light,Gotham" font-size="84.0" fill="#FEFFFF" transform="matrix(1.00, 0.00, -0.00, -1.00, 468.5, 589.7)">m</text><text xml:space="preserve" font-family="Gotham-Light,Gotham" font-size="84.0" fill="#FEFFFF" transform="matrix(1.00, 0.00, -0.00, -1.00, 548.4, 589.7)">i</text><text xml:space="preserve" font-family="Gotham-Light,Gotham" font-size="84.0" fill="#FEFFFF" transform="matrix(1.00, 0.00, -0.00, -1.00, 569.3, 589.7)">l</text><text xml:space="preserve" font-family="Gotham-Light,Gotham" font-size="84.0" fill="#FEFFFF" transform="matrix(1.00, 0.00, -0.00, -1.00, 590.3, 589.7)">y</text><text xml:space="preserve" font-family="Gotham-Light,Gotham" font-size="84.0" fill="#FEFFFF" transform="matrix(1.00, 0.00, -0.00, -1.00, 639.6, 589.7)"> </text><text xml:space="preserve" font-family="Gotham-Light,Gotham" font-size="84.0" fill="#FEFFFF" transform="matrix(1.00, 0.00, -0.00, -1.00, 664.8, 589.7)">R</text><text xml:space="preserve" font-family="Gotham-Light,Gotham" font-size="84.0" fill="#FEFFFF" transform="matrix(1.00, 0.00, -0.00, -1.00, 724.7, 589.7)">o</text><text xml:space="preserve" font-family="Gotham-Light,Gotham" font-size="84.0" fill="#FEFFFF" transform="matrix(1.00, 0.00, -0.00, -1.00, 778.5, 589.7)">s</text><text xml:space="preserve" font-family="Gotham-Light,Gotham" font-size="84.0" fill="#FEFFFF" transform="matrix(1.00, 0.00, -0.00, -1.00, 820.2, 589.7)">e</text></g></g><text xml:space="preserve" font-family="Gotham-Light,Gotham" font-size="44.0" fill="#FEFFFF" transform="matrix(1.00, 0.00, -0.00, -1.00, 421.1, 458.6)">S</text><text xml:space="preserve" font-family="Gotham-Light,Gotham" font-size="44.0" fill="#FEFFFF" transform="matrix(1.00, 0.00, -0.00, -1.00, 449.3, 458.6)">o</text><text xml:space="preserve" font-family="Gotham-Light,Gotham" font-size="44.0" fill="#FEFFFF" transform="matrix(1.00, 0.00, -0.00, -1.00, 477.4, 458.6)">m</text><text xml:space="preserve" font-family="Gotham-Light,Gotham" font-size="44.0" fill="#FEFFFF" transform="matrix(1.00, 0.00, -0.00, -1.00, 519.3, 458.6)">e</text><text xml:space="preserve" font-family="Gotham-Light,Gotham" font-size="44.0" fill="#FEFFFF" transform="matrix(1.00, 0.00, -0.00, -1.00, 545.0, 458.6)"> </text><text xml:space="preserve" font-family="Gotham-Light,Gotham" font-size="44.0" fill="#FEFFFF" transform="matrix(1.00, 0.00, -0.00, -1.00, 558.2, 458.6)">K</text><text xml:space="preserve" font-family="Gotham-Light,Gotham" font-size="44.0" fill="#FEFFFF" transform="matrix(1.00, 0.00, -0.00, -1.00, 589.6, 458.6)">i</text><text xml:space="preserve" font-family="Gotham-Light,Gotham" font-size="44.0" fill="#FEFFFF" transform="matrix(1.00, 0.00, -0.00, -1.00, 600.6, 458.6)">n</text><text xml:space="preserve" font-family="Gotham-Light,Gotham" font-size="44.0" fill="#FEFFFF" transform="matrix(1.00, 0.00, -0.00, -1.00, 627.6, 458.6)">d</text><text xml:space="preserve" font-family="Gotham-Light,Gotham" font-size="44.0" fill="#FEFFFF" transform="matrix(1.00, 0.00, -0.00, -1.00, 656.6, 458.6)"> </text><text xml:space="preserve" font-family="Gotham-Light,Gotham" font-size="44.0" fill="#FEFFFF" transform="matrix(1.00, 0.00, -0.00, -1.00, 669.8, 458.6)">o</text><text xml:space="preserve" font-family="Gotham-Light,Gotham" font-size="44.0" fill="#FEFFFF" transform="matrix(1.00, 0.00, -0.00, -1.00, 698.0, 458.6)">f</text><text xml:space="preserve" font-family="Gotham-Light,Gotham" font-size="44.0" fill="#FEFFFF" transform="matrix(1.00, 0.00, -0.00, -1.00, 713.9, 458.6)"> </text><text xml:space="preserve" font-family="Gotham-Light,Gotham" font-size="44.0" fill="#FEFFFF" transform="matrix(1.00, 0.00, -0.00, -1.00, 727.1, 458.6)">Q</text><text xml:space="preserve" font-family="Gotham-Light,Gotham" font-size="44.0" fill="#FEFFFF" transform="matrix(1.00, 0.00, -0.00, -1.00, 764.5, 458.6)">u</text><text xml:space="preserve" font-family="Gotham-Light,Gotham" font-size="44.0" fill="#FEFFFF" transform="matrix(1.00, 0.00, -0.00, -1.00, 791.5, 458.6)">e</text><text xml:space="preserve" font-family="Gotham-Light,Gotham" font-size="44.0" fill="#FEFFFF" transform="matrix(1.00, 0.00, -0.00, -1.00, 817.2, 458.6)">e</text><text xml:space="preserve" font-family="Gotham-Light,Gotham" font-size="44.0" fill="#FEFFFF" transform="matrix(1.00, 0.00, -0.00, -1.00, 842.9, 458.6)">r</text><text xml:space="preserve" font-family="Gotham-Light,Gotham" font-size="44.0" fill="#FEFFFF" transform="matrix(1.00, 0.00, -0.00, -1.00, 860.5, 458.6)"> </text><text xml:space="preserve" font-family="Gotham-Light,Gotham" font-size="44.0" fill="#FEFFFF" transform="matrix(1.00, 0.00, -0.00, -1.00, 493.9, 405.6)">C</text><text xml:space="preserve" font-family="Gotham-Light,Gotham" font-size="44.0" fill="#FEFFFF" transform="matrix(1.00, 0.00, -0.00, -1.00, 525.9, 405.6)">y</text><text xml:space="preserve" font-family="Gotham-Light,Gotham" font-size="44.0" fill="#FEFFFF" transform="matrix(1.00, 0.00, -0.00, -1.00, 551.8, 405.6)">b</text><text xml:space="preserve" font-family="Gotham-Light,Gotham" font-size="44.0" fill="#FEFFFF" transform="matrix(1.00, 0.00, -0.00, -1.00, 580.8, 405.6)">o</text><text xml:space="preserve" font-family="Gotham-Light,Gotham" font-size="44.0" fill="#FEFFFF" transform="matrix(1.00, 0.00, -0.00, -1.00, 609.0, 405.6)">r</text><text xml:space="preserve" font-family="Gotham-Light,Gotham" font-size="44.0" fill="#FEFFFF" transform="matrix(1.00, 0.00, -0.00, -1.00, 625.5, 405.6)">g</text><text xml:space="preserve" font-family="Gotham-Light,Gotham" font-size="44.0" fill="#FEFFFF" transform="matrix(1.00, 0.00, -0.00, -1.00, 654.5, 405.6)"> </text><text xml:space="preserve" font-family="Gotham-Light,Gotham" font-size="44.0" fill="#FEFFFF" transform="matrix(1.00, 0.00, -0.00, -1.00, 667.7, 405.6)">A</text><text xml:space="preserve" font-family="Gotham-Light,Gotham" font-size="44.0" fill="#FEFFFF" transform="matrix(1.00, 0.00, -0.00, -1.00, 702.5, 405.6)">r</text><text xml:space="preserve" font-family="Gotham-Light,Gotham" font-size="44.0" fill="#FEFFFF" transform="matrix(1.00, 0.00, -0.00, -1.00, 720.1, 405.6)">t</text><text xml:space="preserve" font-family="Gotham-Light,Gotham" font-size="44.0" fill="#FEFFFF" transform="matrix(1.00, 0.00, -0.00, -1.00, 737.7, 405.6)">i</text><text xml:space="preserve" font-family="Gotham-Light,Gotham" font-size="44.0" fill="#FEFFFF" transform="matrix(1.00, 0.00, -0.00, -1.00, 748.6, 405.6)">s</text><text xml:space="preserve" font-family="Gotham-Light,Gotham" font-size="44.0" fill="#FEFFFF" transform="matrix(1.00, 0.00, -0.00, -1.00, 770.1, 405.6)">t</text><text xml:space="preserve" font-family="Gotham-Light,Gotham" font-size="44.0" fill="#FEFFFF" transform="matrix(1.00, 0.00, -0.00, -1.00, 787.7, 405.6)"> </text><text xml:space="preserve" font-family="Gotham-Bold,Gotham" font-weight="bold" font-size="44.0" fill="#FEFFFF" transform="matrix(1.00, 0.00, -0.00, -1.00, 507.4, 299.6)">@</text><text xml:space="preserve" font-family="Gotham-Bold,Gotham" font-weight="bold" font-size="44.0" fill="#FEFFFF" transform="matrix(1.00, 0.00, -0.00, -1.00, 550.5, 299.6)">n</text><text xml:space="preserve" font-family="Gotham-Bold,Gotham" font-weight="bold" font-size="44.0" fill="#FEFFFF" transform="matrix(1.00, 0.00, -0.00, -1.00, 577.9, 299.6)">e</text><text xml:space="preserve" font-family="Gotham-Bold,Gotham" font-weight="bold" font-size="44.0" fill="#FEFFFF" transform="matrix(1.00, 0.00, -0.00, -1.00, 603.6, 299.6)">x</text><text xml:space="preserve" font-family="Gotham-Bold,Gotham" font-weight="bold" font-size="44.0" fill="#FEFFFF" transform="matrix(1.00, 0.00, -0.00, -1.00, 629.3, 299.6)">x</text><text xml:space="preserve" font-family="Gotham-Bold,Gotham" font-weight="bold" font-size="44.0" fill="#FEFFFF" transform="matrix(1.00, 0.00, -0.00, -1.00, 654.5, 299.6)">y</text><text xml:space="preserve" font-family="Gotham-Bold,Gotham" font-weight="bold" font-size="44.0" fill="#FEFFFF" transform="matrix(1.00, 0.00, -0.00, -1.00, 680.9, 299.6)">l</text><text xml:space="preserve" font-family="Gotham-Bold,Gotham" font-weight="bold" font-size="44.0" fill="#FEFFFF" transform="matrix(1.00, 0.00, -0.00, -1.00, 694.2, 299.6)">o</text><text xml:space="preserve" font-family="Gotham-Bold,Gotham" font-weight="bold" font-size="44.0" fill="#FEFFFF" transform="matrix(1.00, 0.00, -0.00, -1.00, 722.1, 299.6)">v</text><text xml:space="preserve" font-family="Gotham-Bold,Gotham" font-weight="bold" font-size="44.0" fill="#FEFFFF" transform="matrix(1.00, 0.00, -0.00, -1.00, 747.2, 299.6)">e</text></g></svg>