<?xml version="1.0" encoding="UTF-8" standalone="no"?><svg xmlns="http://www.w3.org/2000/svg" xmlns:xlink="http://www.w3.org/1999/xlink" clip-rule="evenodd" stroke-miterlimit="10" viewBox="0 0 1920 1080"><desc>SVG generated by Keynote</desc><defs></defs><g transform="matrix(1.00, 0.00, -0.00, -1.00, 0.0, 1080.0)"><path d="M 0.0 1080.0 L 1920.0 1080.0 L 1920.0 0.0 L 0.0 0.0 Z M 0.0 1080.0 " fill="#000000"></path><image xlink:href="../../2829FAF0-1AAE-4C49-B2F8-887B6879FF25/assets/08FB3CCBA09F35FF6C32383BCF02C4AB.png" width="813.00" height="92.00" transform="matrix(1.00, 0.00, -0.00, -1.00, 553.0, 588.0)"></image><text xml:space="preserve" font-family="Gotham-Light,Gotham" font-size="112.0" fill="#FEFFFF" transform="matrix(1.00, 0.00, -0.00, -1.00, 553.5, 506.0)">A</text><text xml:space="preserve" font-family="Gotham-Light,Gotham" font-size="112.0" fill="#FEFFFF" transform="matrix(1.00, 0.00, -0.00, -1.00, 642.0, 506.0)">m</text><text xml:space="preserve" font-family="Gotham-Light,Gotham" font-size="112.0" fill="#FEFFFF" transform="matrix(1.00, 0.00, -0.00, -1.00, 748.5, 506.0)">a</text><text xml:space="preserve" font-family="Gotham-Light,Gotham" font-size="112.0" fill="#FEFFFF" transform="matrix(1.00, 0.00, -0.00, -1.00, 812.8, 506.0)">z</text><text xml:space="preserve" font-family="Gotham-Light,Gotham" font-size="112.0" fill="#FEFFFF" transform="matrix(1.00, 0.00, -0.00, -1.00, 873.1, 506.0)">o</text><text xml:space="preserve" font-family="Gotham-Light,Gotham" font-size="112.0" fill="#FEFFFF" transform="matrix(1.00, 0.00, -0.00, -1.00, 944.8, 506.0)">n</text><text xml:space="preserve" font-family="Gotham-Light,Gotham" font-size="112.0" fill="#FEFFFF" transform="matrix(1.00, 0.00, -0.00, -1.00, 1013.5, 506.0)"> </text><text xml:space="preserve" font-family="Gotham-Light,Gotham" font-size="112.0" fill="#FEFFFF" transform="matrix(1.00, 0.00, -0.00, -1.00, 1047.1, 506.0)">P</text><text xml:space="preserve" font-family="Gotham-Light,Gotham" font-size="112.0" fill="#FEFFFF" transform="matrix(1.00, 0.00, -0.00, -1.00, 1121.9, 506.0)">r</text><text xml:space="preserve" font-family="Gotham-Light,Gotham" font-size="112.0" fill="#FEFFFF" transform="matrix(1.00, 0.00, -0.00, -1.00, 1166.7, 506.0)">i</text><text xml:space="preserve" font-family="Gotham-Light,Gotham" font-size="112.0" fill="#FEFFFF" transform="matrix(1.00, 0.00, -0.00, -1.00, 1194.6, 506.0)">m</text><text xml:space="preserve" font-family="Gotham-Light,Gotham" font-size="112.0" fill="#FEFFFF" transform="matrix(1.00, 0.00, -0.00, -1.00, 1301.1, 506.0)">e</text></g></svg>