<?xml version="1.0" encoding="UTF-8" standalone="no"?><svg xmlns="http://www.w3.org/2000/svg" xmlns:xlink="http://www.w3.org/1999/xlink" clip-rule="evenodd" stroke-miterlimit="10" viewBox="0 0 1920 1080"><desc>SVG generated by Keynote</desc><defs></defs><g transform="matrix(1.00, 0.00, -0.00, -1.00, 0.0, 1080.0)"><path d="M 0.0 1080.0 L 1920.0 1080.0 L 1920.0 0.0 L 0.0 0.0 Z M 0.0 1080.0 " fill="#000000"></path><image xlink:href="9361A091671464A2BE37552D45E30327.png" width="474.00" height="92.00" transform="matrix(1.00, 0.00, -0.00, -1.00, 725.0, 777.0)"></image><text xml:space="preserve" font-family="Gotham-Light,Gotham" font-size="112.0" fill="#FEFFFF" transform="matrix(1.00, 0.00, -0.00, -1.00, 719.3, 694.8)">D</text><text xml:space="preserve" font-family="Gotham-Light,Gotham" font-size="112.0" fill="#FEFFFF" transform="matrix(1.00, 0.00, -0.00, -1.00, 806.9, 694.8)">a</text><text xml:space="preserve" font-family="Gotham-Light,Gotham" font-size="112.0" fill="#FEFFFF" transform="matrix(1.00, 0.00, -0.00, -1.00, 871.2, 694.8)">n</text><text xml:space="preserve" font-family="Gotham-Light,Gotham" font-size="112.0" fill="#FEFFFF" transform="matrix(1.00, 0.00, -0.00, -1.00, 939.8, 694.8)">c</text><text xml:space="preserve" font-family="Gotham-Light,Gotham" font-size="112.0" fill="#FEFFFF" transform="matrix(1.00, 0.00, -0.00, -1.00, 1002.1, 694.8)">e</text><text xml:space="preserve" font-family="Gotham-Light,Gotham" font-size="112.0" fill="#FEFFFF" transform="matrix(1.00, 0.00, -0.00, -1.00, 1067.5, 694.8)">J</text><text xml:space="preserve" font-family="Gotham-Light,Gotham" font-size="112.0" fill="#FEFFFF" transform="matrix(1.00, 0.00, -0.00, -1.00, 1129.0, 694.8)">S</text><text xml:space="preserve" font-family="Gotham-Light,Gotham" font-size="112.0" fill="#FEFFFF" transform="matrix(1.00, 0.00, -0.00, -1.00, 1200.7, 694.8)"> </text><image xlink:href="A06BA5492193E689F5D17D9658330B29.png" width="642.00" height="111.00" transform="matrix(1.00, 0.00, -0.00, -1.00, 642.0, 645.0)"></image><text xml:space="preserve" font-family="Gotham-Light,Gotham" font-size="112.0" fill="#FEFFFF" transform="matrix(1.00, 0.00, -0.00, -1.00, 635.7, 560.8)">E</text><text xml:space="preserve" font-family="Gotham-Light,Gotham" font-size="112.0" fill="#FEFFFF" transform="matrix(1.00, 0.00, -0.00, -1.00, 709.6, 560.8)">v</text><text xml:space="preserve" font-family="Gotham-Light,Gotham" font-size="112.0" fill="#FEFFFF" transform="matrix(1.00, 0.00, -0.00, -1.00, 771.4, 560.8)">e</text><text xml:space="preserve" font-family="Gotham-Light,Gotham" font-size="112.0" fill="#FEFFFF" transform="matrix(1.00, 0.00, -0.00, -1.00, 836.9, 560.8)">r</text><text xml:space="preserve" font-family="Gotham-Light,Gotham" font-size="112.0" fill="#FEFFFF" transform="matrix(1.00, 0.00, -0.00, -1.00, 881.7, 560.8)">y</text><text xml:space="preserve" font-family="Gotham-Light,Gotham" font-size="112.0" fill="#FEFFFF" transform="matrix(1.00, 0.00, -0.00, -1.00, 946.4, 560.8)">w</text><text xml:space="preserve" font-family="Gotham-Light,Gotham" font-size="112.0" fill="#FEFFFF" transform="matrix(1.00, 0.00, -0.00, -1.00, 1042.8, 560.8)">h</text><text xml:space="preserve" font-family="Gotham-Light,Gotham" font-size="112.0" fill="#FEFFFF" transform="matrix(1.00, 0.00, -0.00, -1.00, 1111.5, 560.8)">e</text><text xml:space="preserve" font-family="Gotham-Light,Gotham" font-size="112.0" fill="#FEFFFF" transform="matrix(1.00, 0.00, -0.00, -1.00, 1176.9, 560.8)">r</text><text xml:space="preserve" font-family="Gotham-Light,Gotham" font-size="112.0" fill="#FEFFFF" transform="matrix(1.00, 0.00, -0.00, -1.00, 1218.9, 560.8)">e</text><image xlink:href="8DB81844A771709037EE2D4BDAB4838B.png" width="766.00" height="48.00" transform="matrix(1.00, 0.00, -0.00, -1.00, 430.0, 517.0)"></image><text xml:space="preserve" font-family="Gotham-Light,Gotham" font-size="44.0" fill="#FEFFFF" transform="matrix(1.00, 0.00, -0.00, -1.00, 432.0, 482.1)">O</text><text xml:space="preserve" font-family="Gotham-Light,Gotham" font-size="44.0" fill="#FEFFFF" transform="matrix(1.00, 0.00, -0.00, -1.00, 469.4, 482.1)">a</text><text xml:space="preserve" font-family="Gotham-Light,Gotham" font-size="44.0" fill="#FEFFFF" transform="matrix(1.00, 0.00, -0.00, -1.00, 494.6, 482.1)">k</text><text xml:space="preserve" font-family="Gotham-Light,Gotham" font-size="44.0" fill="#FEFFFF" transform="matrix(1.00, 0.00, -0.00, -1.00, 519.3, 482.1)">l</text><text xml:space="preserve" font-family="Gotham-Light,Gotham" font-size="44.0" fill="#FEFFFF" transform="matrix(1.00, 0.00, -0.00, -1.00, 530.2, 482.1)">a</text><text xml:space="preserve" font-family="Gotham-Light,Gotham" font-size="44.0" fill="#FEFFFF" transform="matrix(1.00, 0.00, -0.00, -1.00, 555.5, 482.1)">n</text><text xml:space="preserve" font-family="Gotham-Light,Gotham" font-size="44.0" fill="#FEFFFF" transform="matrix(1.00, 0.00, -0.00, -1.00, 582.4, 482.1)">d</text><text xml:space="preserve" font-family="Gotham-Light,Gotham" font-size="44.0" fill="#FEFFFF" transform="matrix(1.00, 0.00, -0.00, -1.00, 611.5, 482.1)">,</text><text xml:space="preserve" font-family="Gotham-Light,Gotham" font-size="44.0" fill="#FEFFFF" transform="matrix(1.00, 0.00, -0.00, -1.00, 621.6, 482.1)"> </text><text xml:space="preserve" font-family="Gotham-Light,Gotham" font-size="44.0" fill="#FEFFFF" transform="matrix(1.00, 0.00, -0.00, -1.00, 634.8, 482.1)">S</text><text xml:space="preserve" font-family="Gotham-Light,Gotham" font-size="44.0" fill="#FEFFFF" transform="matrix(1.00, 0.00, -0.00, -1.00, 663.0, 482.1)">a</text><text xml:space="preserve" font-family="Gotham-Light,Gotham" font-size="44.0" fill="#FEFFFF" transform="matrix(1.00, 0.00, -0.00, -1.00, 688.2, 482.1)">n</text><text xml:space="preserve" font-family="Gotham-Light,Gotham" font-size="44.0" fill="#FEFFFF" transform="matrix(1.00, 0.00, -0.00, -1.00, 715.2, 482.1)"> </text><text xml:space="preserve" font-family="Gotham-Light,Gotham" font-size="44.0" fill="#FEFFFF" transform="matrix(1.00, 0.00, -0.00, -1.00, 728.4, 482.1)">F</text><text xml:space="preserve" font-family="Gotham-Light,Gotham" font-size="44.0" fill="#FEFFFF" transform="matrix(1.00, 0.00, -0.00, -1.00, 757.2, 482.1)">r</text><text xml:space="preserve" font-family="Gotham-Light,Gotham" font-size="44.0" fill="#FEFFFF" transform="matrix(1.00, 0.00, -0.00, -1.00, 773.7, 482.1)">a</text><text xml:space="preserve" font-family="Gotham-Light,Gotham" font-size="44.0" fill="#FEFFFF" transform="matrix(1.00, 0.00, -0.00, -1.00, 799.0, 482.1)">n</text><text xml:space="preserve" font-family="Gotham-Light,Gotham" font-size="44.0" fill="#FEFFFF" transform="matrix(1.00, 0.00, -0.00, -1.00, 826.0, 482.1)">c</text><text xml:space="preserve" font-family="Gotham-Light,Gotham" font-size="44.0" fill="#FEFFFF" transform="matrix(1.00, 0.00, -0.00, -1.00, 851.1, 482.1)">i</text><text xml:space="preserve" font-family="Gotham-Light,Gotham" font-size="44.0" fill="#FEFFFF" transform="matrix(1.00, 0.00, -0.00, -1.00, 862.1, 482.1)">s</text><text xml:space="preserve" font-family="Gotham-Light,Gotham" font-size="44.0" fill="#FEFFFF" transform="matrix(1.00, 0.00, -0.00, -1.00, 883.9, 482.1)">c</text><text xml:space="preserve" font-family="Gotham-Light,Gotham" font-size="44.0" fill="#FEFFFF" transform="matrix(1.00, 0.00, -0.00, -1.00, 908.4, 482.1)">o</text><text xml:space="preserve" font-family="Gotham-Light,Gotham" font-size="44.0" fill="#FEFFFF" transform="matrix(1.00, 0.00, -0.00, -1.00, 935.7, 482.1)">,</text><text xml:space="preserve" font-family="Gotham-Light,Gotham" font-size="44.0" fill="#FEFFFF" transform="matrix(1.00, 0.00, -0.00, -1.00, 945.8, 482.1)"> </text><text xml:space="preserve" font-family="Gotham-Light,Gotham" font-size="44.0" fill="#FEFFFF" transform="matrix(1.00, 0.00, -0.00, -1.00, 959.0, 482.1)">V</text><text xml:space="preserve" font-family="Gotham-Light,Gotham" font-size="44.0" fill="#FEFFFF" transform="matrix(1.00, 0.00, -0.00, -1.00, 988.9, 482.1)">a</text><text xml:space="preserve" font-family="Gotham-Light,Gotham" font-size="44.0" fill="#FEFFFF" transform="matrix(1.00, 0.00, -0.00, -1.00, 1014.2, 482.1)">n</text><text xml:space="preserve" font-family="Gotham-Light,Gotham" font-size="44.0" fill="#FEFFFF" transform="matrix(1.00, 0.00, -0.00, -1.00, 1041.1, 482.1)">c</text><text xml:space="preserve" font-family="Gotham-Light,Gotham" font-size="44.0" fill="#FEFFFF" transform="matrix(1.00, 0.00, -0.00, -1.00, 1065.6, 482.1)">o</text><text xml:space="preserve" font-family="Gotham-Light,Gotham" font-size="44.0" fill="#FEFFFF" transform="matrix(1.00, 0.00, -0.00, -1.00, 1093.8, 482.1)">u</text><text xml:space="preserve" font-family="Gotham-Light,Gotham" font-size="44.0" fill="#FEFFFF" transform="matrix(1.00, 0.00, -0.00, -1.00, 1120.7, 482.1)">v</text><text xml:space="preserve" font-family="Gotham-Light,Gotham" font-size="44.0" fill="#FEFFFF" transform="matrix(1.00, 0.00, -0.00, -1.00, 1145.0, 482.1)">e</text><text xml:space="preserve" font-family="Gotham-Light,Gotham" font-size="44.0" fill="#FEFFFF" transform="matrix(1.00, 0.00, -0.00, -1.00, 1170.7, 482.1)">r</text><text xml:space="preserve" font-family="Gotham-Light,Gotham" font-size="44.0" fill="#FEFFFF" transform="matrix(1.00, 0.00, -0.00, -1.00, 1184.4, 482.1)">,</text><text xml:space="preserve" font-family="Gotham-Light,Gotham" font-size="44.0" fill="#FEFFFF" transform="matrix(1.00, 0.00, -0.00, -1.00, 1194.5, 482.1)"> </text><image xlink:href="D60039F4C8226340A30E518533545583.png" width="291.00" height="43.00" transform="matrix(1.00, 0.00, -0.00, -1.00, 1203.0, 516.0)"></image><text xml:space="preserve" font-family="Gotham-LightItalic,Gotham" font-style="italic" font-size="44.0" fill="#FEFFFF" transform="matrix(1.00, 0.00, -0.00, -1.00, 1207.7, 482.1)">S</text><text xml:space="preserve" font-family="Gotham-LightItalic,Gotham" font-style="italic" font-size="44.0" fill="#FEFFFF" transform="matrix(1.00, 0.00, -0.00, -1.00, 1235.7, 482.1)">a</text><text xml:space="preserve" font-family="Gotham-LightItalic,Gotham" font-style="italic" font-size="44.0" fill="#FEFFFF" transform="matrix(1.00, 0.00, -0.00, -1.00, 1260.9, 482.1)">c</text><text xml:space="preserve" font-family="Gotham-LightItalic,Gotham" font-style="italic" font-size="44.0" fill="#FEFFFF" transform="matrix(1.00, 0.00, -0.00, -1.00, 1285.6, 482.1)">r</text><text xml:space="preserve" font-family="Gotham-LightItalic,Gotham" font-style="italic" font-size="44.0" fill="#FEFFFF" transform="matrix(1.00, 0.00, -0.00, -1.00, 1302.4, 482.1)">a</text><text xml:space="preserve" font-family="Gotham-LightItalic,Gotham" font-style="italic" font-size="44.0" fill="#FEFFFF" transform="matrix(1.00, 0.00, -0.00, -1.00, 1327.5, 482.1)">m</text><text xml:space="preserve" font-family="Gotham-LightItalic,Gotham" font-style="italic" font-size="44.0" fill="#FEFFFF" transform="matrix(1.00, 0.00, -0.00, -1.00, 1369.4, 482.1)">e</text><text xml:space="preserve" font-family="Gotham-LightItalic,Gotham" font-style="italic" font-size="44.0" fill="#FEFFFF" transform="matrix(1.00, 0.00, -0.00, -1.00, 1395.0, 482.1)">n</text><text xml:space="preserve" font-family="Gotham-LightItalic,Gotham" font-style="italic" font-size="44.0" fill="#FEFFFF" transform="matrix(1.00, 0.00, -0.00, -1.00, 1421.9, 482.1)">t</text><text xml:space="preserve" font-family="Gotham-LightItalic,Gotham" font-style="italic" font-size="44.0" fill="#FEFFFF" transform="matrix(1.00, 0.00, -0.00, -1.00, 1438.9, 482.1)">o</text><text xml:space="preserve" font-family="Gotham-LightItalic,Gotham" font-style="italic" font-size="44.0" fill="#FEFFFF" transform="matrix(1.00, 0.00, -0.00, -1.00, 1464.5, 482.1)">?</text></g></svg>