<?xml version="1.0" encoding="UTF-8" standalone="no"?><svg xmlns="http://www.w3.org/2000/svg" xmlns:xlink="http://www.w3.org/1999/xlink" clip-rule="evenodd" stroke-miterlimit="10" viewBox="0 0 1920 1080"><desc>SVG generated by Keynote</desc><defs></defs><g transform="matrix(1.00, 0.00, -0.00, -1.00, 0.0, 1080.0)"><path d="M 0.0 1080.0 L 1920.0 1080.0 L 1920.0 0.0 L 0.0 0.0 Z M 0.0 1080.0 " fill="#000000"></path><image xlink:href="C26B8E28CF004C07DA1BB0A5928EDDB5.png" width="981.00" height="108.00" transform="matrix(1.00, 0.00, -0.00, -1.00, 468.0, 654.0)"></image><text xml:space="preserve" font-family="Gotham-Light,Gotham" font-size="112.0" fill="#FEFFFF" transform="matrix(1.00, 0.00, -0.00, -1.00, 467.6, 573.0)">T</text><text xml:space="preserve" font-family="Gotham-Light,Gotham" font-size="112.0" fill="#FEFFFF" transform="matrix(1.00, 0.00, -0.00, -1.00, 529.0, 573.0)">u</text><text xml:space="preserve" font-family="Gotham-Light,Gotham" font-size="112.0" fill="#FEFFFF" transform="matrix(1.00, 0.00, -0.00, -1.00, 597.6, 573.0)">r</text><text xml:space="preserve" font-family="Gotham-Light,Gotham" font-size="112.0" fill="#FEFFFF" transform="matrix(1.00, 0.00, -0.00, -1.00, 642.4, 573.0)">n</text><text xml:space="preserve" font-family="Gotham-Light,Gotham" font-size="112.0" fill="#FEFFFF" transform="matrix(1.00, 0.00, -0.00, -1.00, 711.1, 573.0)">s</text><text xml:space="preserve" font-family="Gotham-Light,Gotham" font-size="112.0" fill="#FEFFFF" transform="matrix(1.00, 0.00, -0.00, -1.00, 766.7, 573.0)"> </text><text xml:space="preserve" font-family="Gotham-Light,Gotham" font-size="112.0" fill="#FEFFFF" transform="matrix(1.00, 0.00, -0.00, -1.00, 800.3, 573.0)">o</text><text xml:space="preserve" font-family="Gotham-Light,Gotham" font-size="112.0" fill="#FEFFFF" transform="matrix(1.00, 0.00, -0.00, -1.00, 872.0, 573.0)">u</text><text xml:space="preserve" font-family="Gotham-Light,Gotham" font-size="112.0" fill="#FEFFFF" transform="matrix(1.00, 0.00, -0.00, -1.00, 940.7, 573.0)">t</text><text xml:space="preserve" font-family="Gotham-Light,Gotham" font-size="112.0" fill="#FEFFFF" transform="matrix(1.00, 0.00, -0.00, -1.00, 985.5, 573.0)"> </text><text xml:space="preserve" font-family="Gotham-Light,Gotham" font-size="112.0" fill="#FEFFFF" transform="matrix(1.00, 0.00, -0.00, -1.00, 1019.1, 573.0)">y</text><text xml:space="preserve" font-family="Gotham-Light,Gotham" font-size="112.0" fill="#FEFFFF" transform="matrix(1.00, 0.00, -0.00, -1.00, 1081.6, 573.0)">o</text><text xml:space="preserve" font-family="Gotham-Light,Gotham" font-size="112.0" fill="#FEFFFF" transform="matrix(1.00, 0.00, -0.00, -1.00, 1153.3, 573.0)">u</text><text xml:space="preserve" font-family="Gotham-Light,Gotham" font-size="112.0" fill="#FEFFFF" transform="matrix(1.00, 0.00, -0.00, -1.00, 1221.9, 573.0)"> </text><text xml:space="preserve" font-family="Gotham-Light,Gotham" font-size="112.0" fill="#FEFFFF" transform="matrix(1.00, 0.00, -0.00, -1.00, 1255.5, 573.0)">c</text><text xml:space="preserve" font-family="Gotham-Light,Gotham" font-size="112.0" fill="#FEFFFF" transform="matrix(1.00, 0.00, -0.00, -1.00, 1319.5, 573.0)">a</text><text xml:space="preserve" font-family="Gotham-Light,Gotham" font-size="112.0" fill="#FEFFFF" transform="matrix(1.00, 0.00, -0.00, -1.00, 1383.8, 573.0)">n</text><text xml:space="preserve" font-family="Gotham-Light,Gotham" font-size="112.0" fill="#FEFFFF" transform="matrix(1.00, 0.00, -0.00, -1.00, 1452.4, 573.0)"> </text><image xlink:href="6409591B50E33325C936F28839307942.png" width="216.00" height="111.00" transform="matrix(1.00, 0.00, -0.00, -1.00, 399.0, 523.0)"></image><text xml:space="preserve" font-family="Gotham-LightItalic,Gotham" font-style="italic" font-size="112.0" fill="#FEFFFF" transform="matrix(1.00, 0.00, -0.00, -1.00, 401.7, 439.0)">b</text><text xml:space="preserve" font-family="Gotham-LightItalic,Gotham" font-style="italic" font-size="112.0" fill="#FEFFFF" transform="matrix(1.00, 0.00, -0.00, -1.00, 474.9, 439.0)">u</text><text xml:space="preserve" font-family="Gotham-LightItalic,Gotham" font-style="italic" font-size="112.0" fill="#FEFFFF" transform="matrix(1.00, 0.00, -0.00, -1.00, 543.1, 439.0)">y</text><image xlink:href="D13E67EAC72E2529BA5C3C095869108E.png" width="375.00" height="71.00" transform="matrix(1.00, 0.00, -0.00, -1.00, 641.0, 500.0)"></image><text xml:space="preserve" font-family="Gotham-Light,Gotham" font-size="112.0" fill="#FEFFFF" transform="matrix(1.00, 0.00, -0.00, -1.00, 606.8, 439.0)"> </text><text xml:space="preserve" font-family="Gotham-Light,Gotham" font-size="112.0" fill="#FEFFFF" transform="matrix(1.00, 0.00, -0.00, -1.00, 640.4, 439.0)">o</text><text xml:space="preserve" font-family="Gotham-Light,Gotham" font-size="112.0" fill="#FEFFFF" transform="matrix(1.00, 0.00, -0.00, -1.00, 712.0, 439.0)">n</text><text xml:space="preserve" font-family="Gotham-Light,Gotham" font-size="112.0" fill="#FEFFFF" transform="matrix(1.00, 0.00, -0.00, -1.00, 780.7, 439.0)">e</text><text xml:space="preserve" font-family="Gotham-Light,Gotham" font-size="112.0" fill="#FEFFFF" transform="matrix(1.00, 0.00, -0.00, -1.00, 846.1, 439.0)"> </text><text xml:space="preserve" font-family="Gotham-Light,Gotham" font-size="112.0" fill="#FEFFFF" transform="matrix(1.00, 0.00, -0.00, -1.00, 879.7, 439.0)">o</text><text xml:space="preserve" font-family="Gotham-Light,Gotham" font-size="112.0" fill="#FEFFFF" transform="matrix(1.00, 0.00, -0.00, -1.00, 951.4, 439.0)">n</text><text xml:space="preserve" font-family="Gotham-Light,Gotham" font-size="112.0" fill="#FEFFFF" transform="matrix(1.00, 0.00, -0.00, -1.00, 1020.0, 439.0)"> </text><image xlink:href="3883ADEA41C9480778209DE88A32BD55.png" width="465.00" height="91.00" transform="matrix(1.00, 0.00, -0.00, -1.00, 1051.0, 520.0)"></image><text xml:space="preserve" font-family="Gotham-Medium,Gotham" font-size="112.0" fill="#FEFFFF" transform="matrix(1.00, 0.00, -0.00, -1.00, 1053.6, 439.0)">A</text><text xml:space="preserve" font-family="Gotham-Medium,Gotham" font-size="112.0" fill="#FEFFFF" transform="matrix(1.00, 0.00, -0.00, -1.00, 1142.1, 439.0)">m</text><text xml:space="preserve" font-family="Gotham-Medium,Gotham" font-size="112.0" fill="#FEFFFF" transform="matrix(1.00, 0.00, -0.00, -1.00, 1248.5, 439.0)">a</text><text xml:space="preserve" font-family="Gotham-Medium,Gotham" font-size="112.0" fill="#FEFFFF" transform="matrix(1.00, 0.00, -0.00, -1.00, 1314.3, 439.0)">z</text><text xml:space="preserve" font-family="Gotham-Medium,Gotham" font-size="112.0" fill="#FEFFFF" transform="matrix(1.00, 0.00, -0.00, -1.00, 1375.3, 439.0)">o</text><text xml:space="preserve" font-family="Gotham-Medium,Gotham" font-size="112.0" fill="#FEFFFF" transform="matrix(1.00, 0.00, -0.00, -1.00, 1448.9, 439.0)">n</text></g></svg>